<svg xmlns="http://www.w3.org/2000/svg" viewBox="0 0 800 700" font-family="Helvetica, Arial, sans-serif">
  <rect width="800" height="700" fill="#ffffff"/>
  <rect x="0.5" y="0.5" width="799" height="699" fill="none" stroke="#1f2933"/>

  <rect x="20" y="20" width="760" height="50" fill="none" stroke="#1f2933"/>
  <text x="36" y="51" font-size="15" fill="#1f2933">LOGO</text>
  <text x="560" y="51" font-size="13" fill="#1f2933">Home</text>
  <text x="630" y="51" font-size="13" fill="#1f2933">Portfolio</text>
  <text x="720" y="51" font-size="13" fill="#1f2933">About</text>

  <text x="20" y="106" font-size="20" fill="#1f2933">Portfolio</text>
  <text x="20" y="128" font-size="11" fill="#6b7280">newest first — sorted by item.date descending, from portfolio.json</text>

  <!-- filter row -->
  <g stroke="#1f2933">
    <rect x="20" y="146" width="120" height="32" fill="#e4b363"/>
    <rect x="152" y="146" width="140" height="32" fill="none"/>
    <rect x="304" y="146" width="140" height="32" fill="none"/>
  </g>
  <g font-size="11" fill="#1f2933">
    <text x="80" y="167" text-anchor="middle">All</text>
    <text x="222" y="167" text-anchor="middle">Graphic Design</text>
    <text x="374" y="167" text-anchor="middle">Photography</text>
  </g>
  <text x="470" y="167" font-size="11" fill="#6b7280">selection saved to localStorage</text>

  <!-- cards -->
  <g stroke="#1f2933" fill="none">
    <rect x="20" y="200" width="240" height="200"/>
    <rect x="280" y="200" width="240" height="200"/>
    <rect x="540" y="200" width="240" height="200"/>
    <rect x="20" y="416" width="240" height="200"/>
    <rect x="280" y="416" width="240" height="200"/>
    <rect x="540" y="416" width="240" height="200"/>
    <line x1="20" y1="330" x2="260" y2="330"/>
    <line x1="280" y1="330" x2="520" y2="330"/>
    <line x1="540" y1="330" x2="780" y2="330"/>
    <line x1="20" y1="546" x2="260" y2="546"/>
    <line x1="280" y1="546" x2="520" y2="546"/>
    <line x1="540" y1="546" x2="780" y2="546"/>
  </g>
  <g font-size="10" fill="#6b7280">
    <text x="140" y="270" text-anchor="middle">cover image</text>
    <text x="32" y="352">Title</text>
    <text x="32" y="370">Description (2 lines, clamped)</text>
    <text x="32" y="390">2026-06-02 · Graphic Design</text>
    <text x="400" y="270" text-anchor="middle">cover image</text>
    <text x="292" y="352">Title</text>
    <text x="292" y="390">date · category</text>
    <text x="660" y="270" text-anchor="middle">cover image</text>
    <text x="552" y="352">Title</text>
    <text x="552" y="390">date · category</text>
    <text x="140" y="486" text-anchor="middle">cover image</text>
    <text x="32" y="568">Title</text>
    <text x="400" y="486" text-anchor="middle">cover image</text>
    <text x="292" y="568">Title</text>
    <text x="660" y="486" text-anchor="middle">cover image</text>
    <text x="552" y="568">Title</text>
  </g>
  <text x="20" y="640" font-size="11" fill="#6b7280">whole card is an &lt;a&gt; → item.html?slug=project-slug</text>

  <rect x="320" y="654" width="160" height="30" fill="none" stroke="#1f2933"/>
  <text x="400" y="674" font-size="11" fill="#1f2933" text-anchor="middle">Load more</text>
</svg>
